<?xml version="1.0" standalone="no"?>
<!DOCTYPE svg PUBLIC "-//W3C//DTD SVG 20010904//EN"
 "http://www.w3.org/TR/2001/REC-SVG-20010904/DTD/svg10.dtd">
<svg version="1.0" xmlns="http://www.w3.org/2000/svg"
 width="512.000000pt" height="512.000000pt" viewBox="0 0 512.000000 512.000000"
 preserveAspectRatio="xMidYMid meet">

<g transform="translate(0.000000,512.000000) scale(0.100000,-0.100000)"
fill="#000000" stroke="none">
<path d="M2267 4613 c-60 -20 -140 -91 -163 -142 l-17 -38 -46 14 c-33 10 -77
13 -151 10 -92 -4 -124 -11 -250 -52 -132 -44 -154 -48 -245 -49 -86 -1 -106
2 -142 22 -51 27 -85 28 -105 5 -20 -23 -498 -1021 -498 -1039 0 -24 47 -121
88 -182 78 -114 203 -205 327 -238 64 -18 186 -18 250 0 130 34 259 131 335
252 43 68 80 146 80 168 0 10 -369 789 -409 865 -8 14 0 16 72 18 62 1 113 11
207 39 69 20 154 45 190 55 79 23 171 24 233 3 43 -15 47 -19 63 -72 22 -71
107 -160 172 -181 l42 -14 0 -572 0 -571 -91 -17 c-265 -50 -487 -214 -603
-445 -28 -55 -28 -79 0 -107 14 -13 110 -15 754 -15 644 0 740 2 754 15 28 28
28 52 0 107 -118 235 -355 406 -621 449 l-73 12 0 572 0 572 41 13 c78 26 161
121 179 205 8 39 69 64 162 64 65 1 85 -4 378 -91 36 -10 101 -20 146 -21 l80
-2 -57 -120 c-31 -66 -125 -262 -209 -435 l-152 -315 18 -53 c25 -75 103 -190
170 -251 166 -152 394 -184 592 -84 70 35 162 119 214 196 41 61 88 157 88
182 0 19 -478 1015 -498 1038 -19 22 -40 19 -127 -13 -82 -30 -172 -24 -330
25 -66 21 -145 44 -175 51 -71 18 -204 18 -263 0 l-46 -14 -13 32 c-50 122
-220 195 -351 149z m-886 -811 l185 -387 -188 -3 c-103 -1 -273 -1 -376 0
l-188 3 186 387 c102 213 187 388 190 388 3 0 89 -175 191 -388z m2340 0 l186
-387 -189 -3 c-103 -1 -273 -1 -376 0 l-188 3 186 387 c102 213 187 387 190
388 3 0 89 -174 191 -388z"/>
<path d="M4348 2536 c-136 -56 -171 -85 -553 -451 -159 -153 -328 -315 -375
-360 -139 -132 -264 -192 -445 -214 -49 -6 -244 -11 -432 -11 l-342 0 -15 22
c-20 28 -20 49 -2 74 14 18 33 19 368 24 l353 5 47 27 c34 21 53 41 72 80 28
57 31 83 16 140 -14 49 -53 94 -103 119 -37 19 -57 21 -227 20 -140 -1 -231 4
-356 20 -227 29 -307 24 -405 -23 -103 -49 -180 -114 -357 -301 -84 -89 -161
-165 -170 -169 -9 -4 -92 -7 -184 -7 l-168 -1 0 -395 0 -396 1003 3 1002 3 71
26 c38 14 94 41 123 60 67 43 1368 1390 1387 1436 42 98 -11 240 -103 279 -50
21 -139 17 -205 -10z"/>
<path d="M513 1770 c-65 -39 -63 -22 -63 -631 0 -536 1 -553 20 -584 33 -54
70 -65 219 -65 151 0 190 11 221 62 19 32 20 49 20 588 0 533 -1 556 -20 587
-33 55 -62 63 -222 63 -124 0 -147 -3 -175 -20z"/>
</g>
</svg>
